<svg id="Слой_2" xmlns="http://www.w3.org/2000/svg" viewBox="0 0 391.6 100.3"><style>.st0{fill:none}.st1{fill:#f68b22}</style><path class="st0" d="M49.7 79.8c-.4.2-.7.3-1.1.5h-.1c-.5.2-1.1.5-1.7.7-.3.1-.6.2-1 .4-.3.1-.7.2-1 .3-.6.2-1.3.4-1.9.6h-.2c-4.1 1.1-8.8 1.7-13.8 1.7s-9.7-.6-13.8-1.7c-.1 0-.1 0-.2-.1-.7-.2-1.3-.4-1.9-.6-.3-.1-.7-.2-1-.3-.3-.1-.6-.2-1-.4-.6-.2-1.1-.5-1.7-.7h-.1c-.4-.2-.8-.3-1.1-.5C5.5 81.5 4 83.6 4 85.6c0 5.1 10.3 10.8 25 10.8s25-5.7 25-10.8c0-2-1.5-4.1-4.3-5.8zM29 42.3C14.2 42.3 4 48 4 53.1c0 3.1 3.8 6.4 10.2 8.6.2.1.4.1.6.2.4.1.9.3 1.3.4.5.1 1 .3 1.5.4.2.1.4.1.7.1.7.1 1.3.3 2 .4.1 0 .3 0 .4.1l2.4.3h.2c.9.1 1.8.2 2.6.2h.1c.9 0 1.9.1 2.8.1s1.9 0 2.8-.1h.1c.9 0 1.8-.1 2.6-.2h.2l2.4-.3c.1 0 .3 0 .4-.1.7-.1 1.4-.2 2-.4.2 0 .5-.1.7-.1.5-.1 1-.3 1.5-.4.5-.1.9-.3 1.3-.4.2-.1.4-.1.6-.2 6.4-2.1 10.2-5.5 10.2-8.6C54 48 43.7 42.3 29 42.3zm161.9-10.7c5.1 0 7.9-4.2 7.9-8.6s-2.8-8.6-7.9-8.6c-4.8 0-8 4.1-8 8.6s3.2 8.6 8 8.6zm-98.1 7.5zm65.9 35.3c-5.1 0-7.9 4.1-7.9 8.6s2.9 8.6 7.9 8.6c5.1 0 7.9-4.1 7.9-8.6s-2.8-8.6-7.9-8.6zm0-60c-5.1 0-7.9 4.1-7.9 8.6s2.9 8.6 7.9 8.6c5.1 0 7.9-4.1 7.9-8.6s-2.8-8.6-7.9-8.6zM89.2 25.2c-.4.2-.7.3-1.1.5H88c-.5.2-1.1.5-1.7.7-.3.1-.6.2-1 .4-.3.1-.7.2-1 .3-.6.2-1.3.4-1.9.6-.1 0-.1 0-.2.1-4.1 1.1-8.8 1.7-13.8 1.7s-9.7-.6-13.8-1.7h-.2c-.7-.2-1.3-.4-2-.6-.3-.1-.7-.2-1-.3-.3-.1-.6-.2-1-.4-.6-.2-1.1-.5-1.7-.7 0 0-.1 0-.1-.1-.4-.2-.8-.3-1.1-.5-2.6 1.7-4.1 3.6-4.2 5.5v.7c.3 3 4.1 6.1 10.2 8.2.2.1.4.1.6.2.4.1.9.3 1.3.4.5.1 1 .3 1.5.4.2.1.5.1.7.1.7.1 1.3.3 2 .4.1 0 .3 0 .4.1l2.4.3h.2c.9.1 1.8.2 2.6.2h.1c.9 0 1.9.1 2.8.1s1.9 0 2.8-.1h.1c.9 0 1.8-.1 2.6-.2h.2l2.4-.3c.1 0 .3 0 .4-.1.7-.1 1.4-.2 2-.4.2 0 .5-.1.7-.1.5-.1 1-.3 1.5-.4.5-.1.9-.3 1.3-.4.2-.1.4-.1.6-.2 6.4-2.1 10.2-5.5 10.2-8.6.5-2-1-4-3.7-5.8z"/><path class="st0" d="M68.4 4C54.1 4 44 9.4 43.5 14.4v.8c.3 3 4.1 6.1 10.2 8.1.2.1.4.1.7.2.4.1.9.3 1.3.4.5.1 1 .3 1.6.4.2 0 .4.1.7.1.7.1 1.3.3 2 .4.1 0 .3 0 .4.1l2.4.3h.2c.9.1 1.8.2 2.7.2h.1c.9 0 1.9.1 2.8.1s1.9 0 2.8-.1h.1c.9 0 1.8-.1 2.7-.2h.2l2.4-.3c.1 0 .3 0 .4-.1.7-.1 1.4-.2 2-.4.2 0 .4-.1.7-.1.5-.1 1.1-.3 1.6-.4.4-.1.9-.2 1.3-.4.2-.1.4-.1.7-.2 6.3-2.1 10.2-5.4 10.2-8.6C93.4 9.7 83.2 4 68.4 4zm20.8 37.5c-.4.2-.8.3-1.1.5H88c-.5.2-1.1.5-1.7.7l-.9.3c-.3.1-.7.2-1 .4-.6.2-1.3.4-1.9.6-.1 0-.2 0-.2.1-4.1 1.1-8.8 1.7-13.8 1.7s-9.7-.6-13.8-1.7c-.1 0-.1 0-.2-.1-.7-.2-1.3-.4-1.9-.6-.3-.1-.7-.2-1-.4-.3-.1-.6-.2-.9-.4-.6-.2-1.1-.5-1.7-.7h-.1c-.4-.2-.8-.3-1.1-.5l-.2.2c6.3 2.6 10.3 6.6 10.5 11.1V57c2.3.5 4.8.8 7.4 1 1 .1 2 .1 3.1.1h1.7c.4 0 .9 0 1.3-.1h.1c3-.2 5.8-.6 8.4-1.2.1 0 .2 0 .3-.1.3-.1.5-.1.8-.2.2-.1.4-.1.7-.2.1 0 .1 0 .2-.1 7.1-2.1 11.5-5.6 11.5-9-.2-1.9-1.7-4-4.4-5.7zm.9 15.7c-.3.2-.7.4-1.1.5h-.1c-.6.3-1.2.6-1.9.9-.1.1-.3.1-.4.2-.6.2-1.1.5-1.7.7-.4.2-.9.3-1.4.4-.3.1-.7.2-1 .3-.6.2-1.2.3-1.7.4-.3.1-.5.1-.8.2-.7.2-1.4.3-2.2.4-.2 0-.4.1-.5.1-.8.1-1.7.2-2.5.3h-.3c-.9.1-1.9.2-2.8.2h-.1c-1 .1-2 .1-3.1.1-3.7 0-7.2-.4-10.5-1V72c3.1.7 6.7 1.1 10.5 1.1 14.7 0 25-5.7 25-10.8-.1-2.1-1.7-3.8-3.4-5.1zm-40.4 6.3c-.4.2-.8.3-1.1.5h-.1c-.5.2-1.1.5-1.7.7l-.9.3c-.3.1-.7.2-1 .4-.6.2-1.3.4-1.9.6-.1 0-.1 0-.2.1-4.1 1.1-8.8 1.7-13.8 1.7s-9.7-.6-13.8-1.7c-.1 0-.2 0-.2-.1-.7-.2-1.3-.4-1.9-.6-.3-.1-.7-.2-1-.4l-.9-.3c-.6-.2-1.1-.5-1.7-.7h-.1c-.4-.2-.8-.3-1.1-.5C5.5 65.3 4 67.3 4 69.3c0 3.1 3.8 6.4 10.2 8.6.2.1.4.1.7.2.4.1.9.3 1.3.4.5.1 1 .3 1.6.4.2 0 .4.1.7.1.7.1 1.3.3 2 .4.1 0 .3 0 .4.1l2.4.3h.2c.9.1 1.8.2 2.7.2h.1c.9 0 1.9.1 2.8.1s1.9 0 2.8-.1h.1c.9 0 1.8-.1 2.7-.2h.2l2.4-.3c.1 0 .3 0 .4-.1.7-.1 1.4-.2 2-.4.2 0 .4-.1.7-.1.5-.1 1.1-.3 1.6-.4.4-.1.9-.3 1.3-.4.2-.1.4-.1.6-.2 6.3-2.1 10.2-5.4 10.2-8.6-.1-2-1.6-4-4.4-5.8zm307.2 10.7c-4.1 0-7.2 3-7.5 6.7h14.1c-.1-3.7-2.3-6.7-6.6-6.7zm-48.7 13.9c0 2.8 2.5 3.7 4.9 3.7 4.4 0 6.8-3 6.8-7v-1.2h-1.1c-4.7 0-10.6.5-10.6 4.5zm-93.1-13.9c-4.1 0-7.2 3-7.5 6.7h14.1c0-3.7-2.2-6.7-6.6-6.7z"/><path class="st1" d="M131 34.9h5V3.8h11.3V-.5h-27.6v4.3H131zm27.7-24.4c-7.3 0-12.8 5.2-12.8 12.5s5.5 12.6 12.8 12.6 12.8-5.2 12.8-12.6c0-7.3-5.6-12.5-12.8-12.5zm0 21.1c-5.1 0-7.9-4.1-7.9-8.6s2.9-8.6 7.9-8.6c5.1 0 7.9 4.1 7.9 8.6s-2.8 8.6-7.9 8.6zm24.5-.3h.1c1.8 2.7 5 4.2 8.4 4.2 7.3 0 12-5.6 12-12.6s-4.8-12.5-11.9-12.5c-3.9 0-7 1.9-8.6 4.4h-.1v-3.7h-4.6v35.7h4.7V31.3zm7.7-16.9c5.1 0 7.9 4.1 7.9 8.6s-2.8 8.6-7.9 8.6c-4.8 0-8-4-8-8.6s3.2-8.6 8-8.6z"/><path d="M147.3 59.5h-27.6v4.3H131v31.1h5V63.8h11.3zm11.4 11c-7.3 0-12.8 5.2-12.8 12.5s5.5 12.6 12.8 12.6 12.8-5.2 12.8-12.6c0-7.3-5.6-12.5-12.8-12.5zm0 21.1c-5.1 0-7.9-4.1-7.9-8.6s2.9-8.6 7.9-8.6c5.1 0 7.9 4.1 7.9 8.6s-2.8 8.6-7.9 8.6zm41-20.4h-6.3l-10 10.3h-.1V57.1h-4.7v37.8h4.7V82.6h.1l10.7 12.3h6.5l-12-13zm15.4-.7c-7 0-12.3 5.2-12.3 12.6 0 7.5 5.3 12.5 12.5 12.5 4.2 0 7.7-1.5 10.2-4.9l-3.3-2.7c-1.4 2-3.7 3.6-6.9 3.6-4.2 0-7.6-3.2-7.7-7.2h18.8v-1.6c.1-7.5-4.3-12.3-11.3-12.3zm-7.4 10.4c.3-3.7 3.4-6.7 7.5-6.7 4.4 0 6.6 3 6.7 6.7h-14.2zm38.2-10.4c-3.4 0-6.6 2-7.7 4.6h-.2c0-1-.1-2.7-.2-3.9h-4.5c.1 1.6.2 3.9.2 5.1v18.6h4.7V82.3c0-4.7 2.7-7.8 6.4-7.8 4.4 0 5.4 3.4 5.4 7.3V95h4.7V80.2c0-5.3-2.7-9.7-8.8-9.7zm41.6 4.2c-4-1.3-7.3-2.4-7.3-6.2 0-4 3.7-5.8 6.9-5.8 3 0 5.5 1.4 6.9 3.3l3.5-3.4c-2.2-2.5-6.1-4.1-10.2-4.1-5.8 0-12.2 3.1-12.2 10.1 0 6.5 4.7 8.6 9.2 10 4.5 1.4 8.4 2.6 8.4 6.9 0 4.2-3.8 6.1-7.1 6.1-3.2 0-6.3-1.7-7.9-4.2l-3.9 3.2c2.7 3.4 7.2 5.2 11.7 5.2 6.3 0 12.3-3.4 12.3-10.8.1-7-5.6-8.8-10.3-10.3zm36.9 5.1c0-5.3-3.1-9.3-9.9-9.3-3.8 0-7.4 1.4-9.7 3.6l2.5 3c1.6-1.6 4.1-2.8 6.8-2.8 3.5 0 5.8 1.7 5.8 5.2v.7c-8 0-16.5.8-16.5 8 0 5.5 4.9 7.3 8.6 7.3 3.6 0 6.3-1.5 8-4h.1c0 1.1.2 2.4.4 3.4h4.2c-.2-1.1-.3-3.1-.3-4.7V79.8zm-4.5 5c0 4-2.5 7-6.8 7-2.4 0-4.9-.9-4.9-3.7 0-4 5.9-4.5 10.6-4.5h1.1v1.2zm12.9-27.7h4.7v37.8h-4.7zm24.1 13.4c-7 0-12.3 5.2-12.3 12.6 0 7.5 5.3 12.5 12.5 12.5 4.2 0 7.7-1.5 10.2-4.9L364 88c-1.4 2-3.7 3.6-6.9 3.6-4.2 0-7.6-3.2-7.7-7.2h18.8v-1.6c.1-7.5-4.3-12.3-11.3-12.3zm-7.5 10.4c.3-3.7 3.4-6.7 7.5-6.7 4.4 0 6.6 3 6.7 6.7h-14.2zm34.2 0c-3.6-.8-5.4-1.5-5.4-3.6 0-2.2 2.2-3.1 4.4-3.1 2.4 0 4.5 1.2 5.5 3l3.3-2.8c-1.7-2.6-5.3-3.9-8.6-3.9-4.5 0-9 2.2-9 7.3 0 4.5 3.8 5.8 6.9 6.6 4.1 1 6.2 1.8 6.2 4 0 2.6-2.4 3.5-4.7 3.5-2.6 0-5-1.4-6.3-3.3l-3.4 2.9c2.2 2.9 6 4.2 9.6 4.2 4.8 0 9.5-2 9.5-7.7 0-4.3-3.5-6.1-8-7.1z" fill="#252525"/><path class="st1" d="M97.4 14.8C97.4 6.5 84.7 0 68.4 0s-29 6.5-29 14.8c0 .3 0 .6.1.9v14.4c0 .3-.1.6-.1.9 0 .3 0 .6.1.9v7.4c-3.3-.6-6.8-1-10.5-1-16.3 0-29 6.5-29 14.8v33.3c.8 7.9 13.2 13.9 28.9 13.9S57 94.2 57.8 86.4V76.1c3.2.6 6.8 1 10.5 1 15.7 0 28-6 28.9-13.9V15.3c.2-.1.2-.3.2-.5zM29 96.3c-14.7 0-25-5.7-25-10.8 0-2 1.5-4 4.2-5.8.4.2.7.3 1.1.5h.1c.5.2 1.1.5 1.7.7.3.1.6.2 1 .4.3.1.7.2 1 .3.6.2 1.3.4 1.9.6.1 0 .1 0 .2.1C19.3 83.4 24 84 29 84s9.7-.6 13.8-1.7h.2c.7-.2 1.3-.4 1.9-.6.3-.1.7-.2 1-.3.3-.1.6-.2 1-.4.6-.2 1.1-.5 1.7-.7h.1c.4-.2.8-.3 1.1-.5 2.7 1.8 4.2 3.8 4.2 5.8 0 5.1-10.3 10.7-25 10.7zm14.8-18.4c-.2.1-.4.1-.6.2-.4.1-.9.3-1.3.4-.5.1-1 .3-1.6.4-.2 0-.4.1-.7.1-.7.1-1.3.3-2 .4-.1 0-.3 0-.4.1l-2.4.3h-.2c-.9.1-1.8.2-2.7.2h-.1c-.9 0-1.9.1-2.8.1s-1.9 0-2.8-.1h-.1c-.9 0-1.8-.1-2.7-.2h-.2l-2.4-.3c-.1 0-.3 0-.4-.1-.7-.1-1.4-.2-2-.4-.2 0-.4-.1-.7-.1-.5-.1-1.1-.3-1.6-.4-.4-.1-.9-.2-1.3-.4-.2-.1-.4-.1-.7-.2C7.8 75.8 4 72.4 4 69.3c0-2 1.5-4 4.2-5.8.4.2.8.4 1.1.5h.1c.5.2 1.1.5 1.7.7l.9.3c.3.1.7.2 1 .4.6.2 1.3.4 1.9.6.1 0 .2 0 .2.1 4.1 1.1 8.8 1.7 13.8 1.7s9.7-.6 13.8-1.7c.1 0 .1 0 .2-.1.7-.2 1.3-.4 1.9-.6.3-.1.7-.2 1-.4l.9-.3c.6-.2 1.1-.5 1.7-.7h.1c.4-.2.8-.3 1.1-.5 2.7 1.8 4.2 3.8 4.2 5.8.2 3.1-3.7 6.5-10 8.6zm0-16.3c-.2.1-.4.1-.6.2-.4.1-.9.3-1.3.4-.5.1-1 .3-1.5.4-.2.1-.4.1-.7.1-.7.1-1.3.3-2 .4-.1 0-.3 0-.4.1l-2.4.3h-.2c-.9.1-1.8.2-2.6.2H32c-.9 0-1.9.1-2.8.1s-1.9 0-2.8-.1h-.1c-.9 0-1.8-.1-2.6-.2h-.2l-2.4-.3c-.1 0-.3 0-.4-.1-.7-.1-1.4-.2-2-.4-.2 0-.5-.1-.7-.1-.5-.1-1-.3-1.5-.4-.5-.1-.9-.3-1.3-.4-.2-.1-.4-.1-.6-.2C7.8 59.5 4 56.2 4 53.1 4 48 14.2 42.3 29 42.3c14.7 0 25 5.7 25 10.8 0 3.1-3.9 6.4-10.2 8.5zm24.6 11.5c-3.8 0-7.4-.4-10.5-1.1V60.9c3.2.6 6.8 1 10.5 1 1 0 2.1 0 3.1-.1h.1c1-.1 1.9-.1 2.8-.2h.3c.9-.1 1.7-.2 2.5-.3.2 0 .4-.1.5-.1.7-.1 1.5-.3 2.2-.4.3-.1.5-.1.8-.2.6-.1 1.2-.3 1.7-.4.3-.1.7-.2 1-.3.5-.1.9-.3 1.4-.4.6-.2 1.2-.4 1.7-.7.1-.1.3-.1.4-.2.6-.3 1.3-.6 1.9-.9h.1c.4-.2.7-.3 1.1-.5 1.7 1.3 3.3 3 3.3 5.2.1 5.1-10.1 10.7-24.9 10.7zm13.5-16.9c-.1 0-.1 0-.2.1-.2.1-.4.1-.7.2-.3.1-.5.1-.8.2-.1 0-.2 0-.3.1-2.6.6-5.5 1-8.4 1.2h-.1c-.4 0-.9 0-1.3.1h-1.7c-1 0-2.1 0-3.1-.1-2.6-.1-5.1-.5-7.4-1v-4.3c-.2-4.5-4.2-8.5-10.5-11.1l.2-.2c.4.2.7.3 1.1.5h.1c.5.2 1.1.5 1.7.7.3.1.6.2.9.4.3.1.7.2 1 .4.6.2 1.3.4 1.9.6.1 0 .1 0 .2.1 4.1 1.1 8.8 1.7 13.8 1.7s9.7-.6 13.8-1.7c.1 0 .2 0 .2-.1.7-.2 1.3-.4 1.9-.6.3-.1.7-.2 1-.4l.9-.3c.6-.2 1.1-.5 1.7-.7h.1c.4-.2.8-.3 1.1-.5 2.7 1.8 4.2 3.8 4.2 5.8.2 3.3-4.1 6.9-11.3 8.9zm10.9-17.1zm-9.6.5c-.2.1-.4.1-.6.2-.4.1-.9.3-1.3.4-.5.1-1 .3-1.5.4-.2.1-.4.1-.7.1-.7.1-1.3.3-2 .4-.1 0-.3 0-.4.1l-2.4.3h-.2c-.9.1-1.8.2-2.6.2h-.1c-.9 0-1.9.1-2.8.1s-1.9 0-2.8-.1h-.1c-.9 0-1.8-.1-2.6-.2h-.2l-2.4-.3c-.1 0-.3 0-.4-.1-.7-.1-1.4-.2-2-.4-.2 0-.5-.1-.7-.1-.5-.1-1-.3-1.5-.4-.5-.1-.9-.3-1.3-.4-.2-.1-.4-.1-.6-.2-6.1-2-9.9-5.2-10.2-8.2v-.7c.1-1.9 1.6-3.8 4.2-5.5.4.2.7.3 1.1.5 0 0 .1 0 .1.1.5.2 1.1.5 1.7.7.3.1.6.2 1 .4.3.1.6.2 1 .3.6.2 1.3.4 2 .6h.2c4.1 1.1 8.8 1.7 13.8 1.7s9.7-.6 13.8-1.7c.1 0 .1 0 .2-.1.7-.2 1.3-.4 1.9-.6.3-.1.7-.2 1-.3.3-.1.6-.2 1-.4.6-.2 1.1-.5 1.7-.7h.1c.4-.2.8-.3 1.1-.5 2.7 1.8 4.2 3.8 4.2 5.8-.5 3.1-4.3 6.5-10.7 8.6zm0-16.3c-.2.1-.4.1-.7.2-.4.1-.9.3-1.3.4-.5.1-1 .3-1.6.4-.2 0-.4.1-.7.1-.7.1-1.3.3-2 .4-.1 0-.3 0-.4.1l-2.4.3h-.2c-.9.1-1.8.2-2.7.2h-.1c-.9 0-1.9.1-2.8.1s-1.9 0-2.8-.1h-.1c-.9 0-1.8-.1-2.7-.2h-.2l-2.4-.3c-.1 0-.3 0-.4-.1-.7-.1-1.4-.2-2-.4-.2 0-.4-.1-.7-.1-.5-.1-1.1-.3-1.6-.4-.4-.1-.9-.2-1.3-.4-.2-.1-.4-.1-.7-.2-6.1-2-9.8-5.2-10.2-8.1v-.8C44 9.4 54.1 4 68.4 4c14.7 0 25 5.7 25 10.8 0 3.1-3.8 6.4-10.2 8.5z"/></svg>