<?xml version="1.0" encoding="utf-8"?>
<!-- Generator: Adobe Illustrator 21.0.0, SVG Export Plug-In . SVG Version: 6.00 Build 0)  -->
<svg version="1.1" id="Слой_2" xmlns="http://www.w3.org/2000/svg" xmlns:xlink="http://www.w3.org/1999/xlink" x="0px" y="0px"
	 viewBox="0 0 391.6 100.3" style="enable-background:new 0 0 391.6 100.3;" xml:space="preserve">
<style type="text/css">
	.st0{fill:none;}
	.st1{fill:#F68B22;}
	.st2{fill:#252525;}
</style>
<g>
	<path class="st0" d="M49.7,79.8c-0.4,0.2-0.7,0.3-1.1,0.5c0,0-0.1,0-0.1,0c-0.5,0.2-1.1,0.5-1.7,0.7c-0.3,0.1-0.6,0.2-1,0.4
		c-0.3,0.1-0.7,0.2-1,0.3c-0.6,0.2-1.3,0.4-1.9,0.6c-0.1,0-0.1,0-0.2,0c-4.1,1.1-8.8,1.7-13.8,1.7c-5,0-9.7-0.6-13.8-1.7
		c-0.1,0-0.1,0-0.2-0.1c-0.7-0.2-1.3-0.4-1.9-0.6c-0.3-0.1-0.7-0.2-1-0.3c-0.3-0.1-0.6-0.2-1-0.4c-0.6-0.2-1.1-0.5-1.7-0.7
		c0,0-0.1,0-0.1,0c-0.4-0.2-0.8-0.3-1.1-0.5C5.5,81.5,4,83.6,4,85.6c0,5.1,10.3,10.8,25,10.8c14.7,0,25-5.7,25-10.8
		C54,83.6,52.5,81.5,49.7,79.8z"/>
	<path class="st0" d="M29,42.3C14.2,42.3,4,48,4,53.1c0,3.1,3.8,6.4,10.2,8.6c0.2,0.1,0.4,0.1,0.6,0.2c0.4,0.1,0.9,0.3,1.3,0.4
		c0.5,0.1,1,0.3,1.5,0.4c0.2,0.1,0.4,0.1,0.7,0.1c0.7,0.1,1.3,0.3,2,0.4c0.1,0,0.3,0,0.4,0.1c0.8,0.1,1.6,0.2,2.4,0.3
		c0.1,0,0.1,0,0.2,0c0.9,0.1,1.8,0.2,2.6,0.2c0,0,0.1,0,0.1,0c0.9,0,1.9,0.1,2.8,0.1s1.9,0,2.8-0.1c0,0,0.1,0,0.1,0
		c0.9,0,1.8-0.1,2.6-0.2c0.1,0,0.1,0,0.2,0c0.8-0.1,1.6-0.2,2.4-0.3c0.1,0,0.3,0,0.4-0.1c0.7-0.1,1.4-0.2,2-0.4
		c0.2,0,0.5-0.1,0.7-0.1c0.5-0.1,1-0.3,1.5-0.4c0.5-0.1,0.9-0.3,1.3-0.4c0.2-0.1,0.4-0.1,0.6-0.2c6.4-2.1,10.2-5.5,10.2-8.6
		C54,48,43.7,42.3,29,42.3z"/>
	<path class="st0" d="M190.9,31.6c5.1,0,7.9-4.2,7.9-8.6s-2.8-8.6-7.9-8.6c-4.8,0-8,4.1-8,8.6S186.1,31.6,190.9,31.6z"/>
	<path class="st0" d="M92.8,39.1C92.8,39.1,92.8,39.1,92.8,39.1L92.8,39.1C92.8,39.1,92.8,39.1,92.8,39.1z"/>
	<path class="st0" d="M158.7,74.4c-5.1,0-7.9,4.1-7.9,8.6c0,4.5,2.9,8.6,7.9,8.6c5.1,0,7.9-4.1,7.9-8.6
		C166.6,78.5,163.8,74.4,158.7,74.4z"/>
	<path class="st0" d="M158.7,14.4c-5.1,0-7.9,4.1-7.9,8.6c0,4.5,2.9,8.6,7.9,8.6c5.1,0,7.9-4.1,7.9-8.6
		C166.6,18.5,163.8,14.4,158.7,14.4z"/>
	<path class="st0" d="M89.2,25.2c-0.4,0.2-0.7,0.3-1.1,0.5c0,0-0.1,0-0.1,0c-0.5,0.2-1.1,0.5-1.7,0.7c-0.3,0.1-0.6,0.2-1,0.4
		c-0.3,0.1-0.7,0.2-1,0.3c-0.6,0.2-1.3,0.4-1.9,0.6c-0.1,0-0.1,0-0.2,0.1c-4.1,1.1-8.8,1.7-13.8,1.7c-5,0-9.7-0.6-13.8-1.7
		c-0.1,0-0.1,0-0.2,0c-0.7-0.2-1.3-0.4-2-0.6c-0.3-0.1-0.7-0.2-1-0.3c-0.3-0.1-0.6-0.2-1-0.4c-0.6-0.2-1.1-0.5-1.7-0.7
		c0,0-0.1,0-0.1-0.1c-0.4-0.2-0.8-0.3-1.1-0.5c-2.6,1.7-4.1,3.6-4.2,5.5v0.7c0.3,3,4.1,6.1,10.2,8.2c0.2,0.1,0.4,0.1,0.6,0.2
		c0.4,0.1,0.9,0.3,1.3,0.4c0.5,0.1,1,0.3,1.5,0.4c0.2,0.1,0.5,0.1,0.7,0.1c0.7,0.1,1.3,0.3,2,0.4c0.1,0,0.3,0,0.4,0.1
		c0.8,0.1,1.6,0.2,2.4,0.3c0.1,0,0.1,0,0.2,0c0.9,0.1,1.8,0.2,2.6,0.2c0,0,0.1,0,0.1,0c0.9,0,1.9,0.1,2.8,0.1s1.9,0,2.8-0.1
		c0,0,0.1,0,0.1,0c0.9,0,1.8-0.1,2.6-0.2c0.1,0,0.1,0,0.2,0c0.8-0.1,1.6-0.2,2.4-0.3c0.1,0,0.3,0,0.4-0.1c0.7-0.1,1.4-0.2,2-0.4
		c0.2,0,0.5-0.1,0.7-0.1c0.5-0.1,1-0.3,1.5-0.4c0.5-0.1,0.9-0.3,1.3-0.4c0.2-0.1,0.4-0.1,0.6-0.2c6.4-2.1,10.2-5.5,10.2-8.6
		C93.4,29,91.9,27,89.2,25.2z"/>
	<path class="st0" d="M68.4,4C54.1,4,44,9.4,43.5,14.4v0.8c0.3,3,4.1,6.1,10.2,8.1c0.2,0.1,0.4,0.1,0.7,0.2c0.4,0.1,0.9,0.3,1.3,0.4
		c0.5,0.1,1,0.3,1.6,0.4c0.2,0,0.4,0.1,0.7,0.1c0.7,0.1,1.3,0.3,2,0.4c0.1,0,0.3,0,0.4,0.1c0.8,0.1,1.6,0.2,2.4,0.3
		c0.1,0,0.1,0,0.2,0c0.9,0.1,1.8,0.2,2.7,0.2c0,0,0.1,0,0.1,0c0.9,0,1.9,0.1,2.8,0.1s1.9,0,2.8-0.1c0,0,0.1,0,0.1,0
		c0.9,0,1.8-0.1,2.7-0.2c0.1,0,0.1,0,0.2,0c0.8-0.1,1.6-0.2,2.4-0.3c0.1,0,0.3,0,0.4-0.1c0.7-0.1,1.4-0.2,2-0.4
		c0.2,0,0.4-0.1,0.7-0.1c0.5-0.1,1.1-0.3,1.6-0.4c0.4-0.1,0.9-0.2,1.3-0.4c0.2-0.1,0.4-0.1,0.7-0.2c6.3-2.1,10.2-5.4,10.2-8.6
		C93.4,9.7,83.2,4,68.4,4z"/>
	<path class="st0" d="M89.2,41.5c-0.4,0.2-0.8,0.3-1.1,0.5c0,0-0.1,0-0.1,0c-0.5,0.2-1.1,0.5-1.7,0.7c-0.3,0.1-0.6,0.2-0.9,0.3
		c-0.3,0.1-0.7,0.2-1,0.4c-0.6,0.2-1.3,0.4-1.9,0.6c-0.1,0-0.2,0-0.2,0.1c-4.1,1.1-8.8,1.7-13.8,1.7c-5,0-9.7-0.6-13.8-1.7
		c-0.1,0-0.1,0-0.2-0.1c-0.7-0.2-1.3-0.4-1.9-0.6c-0.3-0.1-0.7-0.2-1-0.4c-0.3-0.1-0.6-0.2-0.9-0.4c-0.6-0.2-1.1-0.5-1.7-0.7
		c0,0-0.1,0-0.1,0c-0.4-0.2-0.8-0.3-1.1-0.5c-0.1,0.1-0.1,0.1-0.2,0.2c6.3,2.6,10.3,6.6,10.5,11.1h0v0.1c0,0.1,0,0.2,0,0.3
		s0,0.2,0,0.3V57c2.3,0.5,4.8,0.8,7.4,1c1,0.1,2,0.1,3.1,0.1c0.5,0,1,0,1.5,0c0.1,0,0.1,0,0.2,0c0.4,0,0.9,0,1.3-0.1
		c0,0,0.1,0,0.1,0c3-0.2,5.8-0.6,8.4-1.2c0.1,0,0.2,0,0.3-0.1c0.3-0.1,0.5-0.1,0.8-0.2c0.2-0.1,0.4-0.1,0.7-0.2c0.1,0,0.1,0,0.2-0.1
		c7.1-2.1,11.5-5.6,11.5-9C93.4,45.3,91.9,43.2,89.2,41.5z"/>
	<path class="st0" d="M90.1,57.2c-0.3,0.2-0.7,0.4-1.1,0.5c0,0-0.1,0-0.1,0c-0.6,0.3-1.2,0.6-1.9,0.9c-0.1,0.1-0.3,0.1-0.4,0.2
		c-0.6,0.2-1.1,0.5-1.7,0.7c-0.4,0.2-0.9,0.3-1.4,0.4c-0.3,0.1-0.7,0.2-1,0.3c-0.6,0.2-1.2,0.3-1.7,0.4c-0.3,0.1-0.5,0.1-0.8,0.2
		c-0.7,0.2-1.4,0.3-2.2,0.4c-0.2,0-0.4,0.1-0.5,0.1c-0.8,0.1-1.7,0.2-2.5,0.3c-0.1,0-0.2,0-0.3,0c-0.9,0.1-1.9,0.2-2.8,0.2
		c0,0-0.1,0-0.1,0c-1,0.1-2,0.1-3.1,0.1c-3.7,0-7.2-0.4-10.5-1v8c0,0.1,0,0.2,0,0.3c0,0.1,0,0.2,0,0.3v2.5c3.1,0.7,6.7,1.1,10.5,1.1
		c14.7,0,25-5.7,25-10.8C93.4,60.2,91.8,58.5,90.1,57.2z"/>
	<path class="st0" d="M49.7,63.5c-0.4,0.2-0.8,0.3-1.1,0.5c0,0-0.1,0-0.1,0c-0.5,0.2-1.1,0.5-1.7,0.7c-0.3,0.1-0.6,0.2-0.9,0.3
		c-0.3,0.1-0.7,0.2-1,0.4c-0.6,0.2-1.3,0.4-1.9,0.6c-0.1,0-0.1,0-0.2,0.1c-4.1,1.1-8.8,1.7-13.8,1.7c-5,0-9.7-0.6-13.8-1.7
		c-0.1,0-0.2,0-0.2-0.1c-0.7-0.2-1.3-0.4-1.9-0.6c-0.3-0.1-0.7-0.2-1-0.4c-0.3-0.1-0.6-0.2-0.9-0.3c-0.6-0.2-1.1-0.5-1.7-0.7
		c0,0-0.1,0-0.1,0c-0.4-0.2-0.8-0.3-1.1-0.5C5.5,65.3,4,67.3,4,69.3c0,3.1,3.8,6.4,10.2,8.6c0.2,0.1,0.4,0.1,0.7,0.2
		c0.4,0.1,0.9,0.3,1.3,0.4c0.5,0.1,1,0.3,1.6,0.4c0.2,0,0.4,0.1,0.7,0.1c0.7,0.1,1.3,0.3,2,0.4c0.1,0,0.3,0,0.4,0.1
		c0.8,0.1,1.6,0.2,2.4,0.3c0.1,0,0.1,0,0.2,0c0.9,0.1,1.8,0.2,2.7,0.2c0,0,0.1,0,0.1,0c0.9,0,1.9,0.1,2.8,0.1s1.9,0,2.8-0.1
		c0,0,0.1,0,0.1,0c0.9,0,1.8-0.1,2.7-0.2c0.1,0,0.1,0,0.2,0c0.8-0.1,1.6-0.2,2.4-0.3c0.1,0,0.3,0,0.4-0.1c0.7-0.1,1.4-0.2,2-0.4
		c0.2,0,0.4-0.1,0.7-0.1c0.5-0.1,1.1-0.3,1.6-0.4c0.4-0.1,0.9-0.3,1.3-0.4c0.2-0.1,0.4-0.1,0.6-0.2c6.3-2.1,10.2-5.4,10.2-8.6
		C54,67.3,52.5,65.3,49.7,63.5z"/>
	<path class="st0" d="M356.9,74.2c-4.1,0-7.2,3-7.5,6.7h14.1C363.4,77.2,361.2,74.2,356.9,74.2z"/>
	<path class="st0" d="M308.2,88.1c0,2.8,2.5,3.7,4.9,3.7c4.4,0,6.8-3,6.8-7v-1.2h-1.1C314.1,83.6,308.2,84.1,308.2,88.1z"/>
	<path class="st0" d="M215.1,74.2c-4.1,0-7.2,3-7.5,6.7h14.1C221.7,77.2,219.5,74.2,215.1,74.2z"/>
	<polygon class="st1" points="131,34.9 136,34.9 136,3.8 147.3,3.8 147.3,-0.5 119.7,-0.5 119.7,3.8 131,3.8 	"/>
	<path class="st1" d="M158.7,10.5c-7.3,0-12.8,5.2-12.8,12.5c0,7.3,5.5,12.6,12.8,12.6s12.8-5.2,12.8-12.6
		C171.5,15.7,165.9,10.5,158.7,10.5z M158.7,31.6c-5.1,0-7.9-4.1-7.9-8.6c0-4.5,2.9-8.6,7.9-8.6c5.1,0,7.9,4.1,7.9,8.6
		C166.6,27.5,163.8,31.6,158.7,31.6z"/>
	<path class="st1" d="M183.2,31.3h0.1c1.8,2.7,5,4.2,8.4,4.2c7.3,0,12-5.6,12-12.6c0-7-4.8-12.5-11.9-12.5c-3.9,0-7,1.9-8.6,4.4
		h-0.1v-3.7h-4.6v35.7h4.7V31.3z M190.9,14.4c5.1,0,7.9,4.1,7.9,8.6s-2.8,8.6-7.9,8.6c-4.8,0-8-4-8-8.6S186.1,14.4,190.9,14.4z"/>
	<polygon class="st2" points="147.3,59.5 119.7,59.5 119.7,63.8 131,63.8 131,94.9 136,94.9 136,63.8 147.3,63.8 	"/>
	<path class="st2" d="M158.7,70.5c-7.3,0-12.8,5.2-12.8,12.5c0,7.3,5.5,12.6,12.8,12.6s12.8-5.2,12.8-12.6
		C171.5,75.7,165.9,70.5,158.7,70.5z M158.7,91.6c-5.1,0-7.9-4.1-7.9-8.6c0-4.5,2.9-8.6,7.9-8.6c5.1,0,7.9,4.1,7.9,8.6
		C166.6,87.5,163.8,91.6,158.7,91.6z"/>
	<polygon class="st2" points="199.7,71.2 193.4,71.2 183.4,81.5 183.3,81.5 183.3,57.1 178.6,57.1 178.6,94.9 183.3,94.9 
		183.3,82.6 183.4,82.6 194.1,94.9 200.6,94.9 188.6,81.9 	"/>
	<path class="st2" d="M215.1,70.5c-7,0-12.3,5.2-12.3,12.6c0,7.5,5.3,12.5,12.5,12.5c4.2,0,7.7-1.5,10.2-4.9l-3.3-2.7
		c-1.4,2-3.7,3.6-6.9,3.6c-4.2,0-7.6-3.2-7.7-7.2h18.8c0-0.5,0-1.1,0-1.6C226.5,75.3,222.1,70.5,215.1,70.5z M207.7,80.9
		c0.3-3.7,3.4-6.7,7.5-6.7c4.4,0,6.6,3,6.7,6.7H207.7z"/>
	<path class="st2" d="M245.9,70.5c-3.4,0-6.6,2-7.7,4.6H238c0-1-0.1-2.7-0.2-3.9h-4.5c0.1,1.6,0.2,3.9,0.2,5.1v18.6h4.7V82.3
		c0-4.7,2.7-7.8,6.4-7.8c4.4,0,5.4,3.4,5.4,7.3v13.2h4.7V80.2C254.7,74.9,252,70.5,245.9,70.5z"/>
	<path class="st2" d="M287.5,74.7c-4-1.3-7.3-2.4-7.3-6.2c0-4,3.7-5.8,6.9-5.8c3,0,5.5,1.4,6.9,3.3l3.5-3.4
		c-2.2-2.5-6.1-4.1-10.2-4.1c-5.8,0-12.2,3.1-12.2,10.1c0,6.5,4.7,8.6,9.2,10c4.5,1.4,8.4,2.6,8.4,6.9c0,4.2-3.8,6.1-7.1,6.1
		c-3.2,0-6.3-1.7-7.9-4.2l-3.9,3.2c2.7,3.4,7.2,5.2,11.7,5.2c6.3,0,12.3-3.4,12.3-10.8C297.9,78,292.2,76.2,287.5,74.7z"/>
	<path class="st2" d="M324.4,79.8c0-5.3-3.1-9.3-9.9-9.3c-3.8,0-7.4,1.4-9.7,3.6l2.5,3c1.6-1.6,4.1-2.8,6.8-2.8
		c3.5,0,5.8,1.7,5.8,5.2v0.7c-8,0-16.5,0.8-16.5,8c0,5.5,4.9,7.3,8.6,7.3c3.6,0,6.3-1.5,8-4h0.1c0,1.1,0.2,2.4,0.4,3.4h4.2
		c-0.2-1.1-0.3-3.1-0.3-4.7V79.8z M319.9,84.8c0,4-2.5,7-6.8,7c-2.4,0-4.9-0.9-4.9-3.7c0-4,5.9-4.5,10.6-4.5h1.1V84.8z"/>
	<rect x="332.8" y="57.1" class="st2" width="4.7" height="37.8"/>
	<path class="st2" d="M356.9,70.5c-7,0-12.3,5.2-12.3,12.6c0,7.5,5.3,12.5,12.5,12.5c4.2,0,7.7-1.5,10.2-4.9L364,88
		c-1.4,2-3.7,3.6-6.9,3.6c-4.2,0-7.6-3.2-7.7-7.2h18.8c0-0.5,0-1.1,0-1.6C368.3,75.3,363.9,70.5,356.9,70.5z M349.4,80.9
		c0.3-3.7,3.4-6.7,7.5-6.7c4.4,0,6.6,3,6.7,6.7H349.4z"/>
	<path class="st2" d="M383.6,80.9c-3.6-0.8-5.4-1.5-5.4-3.6c0-2.2,2.2-3.1,4.4-3.1c2.4,0,4.5,1.2,5.5,3l3.3-2.8
		c-1.7-2.6-5.3-3.9-8.6-3.9c-4.5,0-9,2.2-9,7.3c0,4.5,3.8,5.8,6.9,6.6c4.1,1,6.2,1.8,6.2,4c0,2.6-2.4,3.5-4.7,3.5
		c-2.6,0-5-1.4-6.3-3.3l-3.4,2.9c2.2,2.9,6,4.2,9.6,4.2c4.8,0,9.5-2,9.5-7.7C391.6,83.7,388.1,81.9,383.6,80.9z"/>
	<path class="st1" d="M97.4,14.8C97.4,6.5,84.7,0,68.4,0s-29,6.5-29,14.8c0,0.3,0,0.6,0.1,0.9v14.4c0,0.3-0.1,0.6-0.1,0.9
		c0,0.3,0,0.6,0.1,0.9v7.4c-3.3-0.6-6.8-1-10.5-1c-16.3,0-29,6.5-29,14.8c0,0.2,0,0.3,0,0.5v15.2c0,0.2,0,0.4,0,0.5
		c0,0.2,0,0.3,0,0.5V85c0,0.2,0,0.4,0,0.5c0,0.2,0,0.3,0,0.5v0.4h0c0.8,7.9,13.2,13.9,28.9,13.9s28.1-6.1,28.9-13.9h0v-0.6
		c0-0.1,0-0.2,0-0.3c0-0.1,0-0.2,0-0.3v-9.1c3.2,0.6,6.8,1,10.5,1c15.7,0,28-6,28.9-13.9h0v-0.3c0-0.2,0-0.4,0-0.6
		c0-0.1,0-0.2,0-0.4V47.9c0-0.2,0-0.4,0-0.6c0-0.2,0-0.4,0-0.7v-15c0-0.2,0-0.4,0-0.6c0-0.2,0-0.4,0-0.7v-15
		C97.4,15.2,97.4,15,97.4,14.8z M29,96.3c-14.7,0-25-5.7-25-10.8c0-2,1.5-4,4.2-5.8c0.4,0.2,0.7,0.3,1.1,0.5c0,0,0.1,0,0.1,0
		c0.5,0.2,1.1,0.5,1.7,0.7c0.3,0.1,0.6,0.2,1,0.4c0.3,0.1,0.7,0.2,1,0.3c0.6,0.2,1.3,0.4,1.9,0.6c0.1,0,0.1,0,0.2,0.1
		c4.1,1.1,8.8,1.7,13.8,1.7c5,0,9.7-0.6,13.8-1.7c0.1,0,0.1,0,0.2,0c0.7-0.2,1.3-0.4,1.9-0.6c0.3-0.1,0.7-0.2,1-0.3
		c0.3-0.1,0.6-0.2,1-0.4c0.6-0.2,1.1-0.5,1.7-0.7c0,0,0.1,0,0.1,0c0.4-0.2,0.8-0.3,1.1-0.5c2.7,1.8,4.2,3.8,4.2,5.8
		C54,90.7,43.7,96.3,29,96.3z M43.8,77.9c-0.2,0.1-0.4,0.1-0.6,0.2c-0.4,0.1-0.9,0.3-1.3,0.4c-0.5,0.1-1,0.3-1.6,0.4
		c-0.2,0-0.4,0.1-0.7,0.1c-0.7,0.1-1.3,0.3-2,0.4c-0.1,0-0.3,0-0.4,0.1c-0.8,0.1-1.6,0.2-2.4,0.3c-0.1,0-0.1,0-0.2,0
		c-0.9,0.1-1.8,0.2-2.7,0.2c0,0-0.1,0-0.1,0c-0.9,0-1.9,0.1-2.8,0.1s-1.9,0-2.8-0.1c0,0-0.1,0-0.1,0c-0.9,0-1.8-0.1-2.7-0.2
		c-0.1,0-0.1,0-0.2,0c-0.8-0.1-1.6-0.2-2.4-0.3c-0.1,0-0.3,0-0.4-0.1c-0.7-0.1-1.4-0.2-2-0.4c-0.2,0-0.4-0.1-0.7-0.1
		c-0.5-0.1-1.1-0.3-1.6-0.4c-0.4-0.1-0.9-0.2-1.3-0.4c-0.2-0.1-0.4-0.1-0.7-0.2C7.8,75.8,4,72.4,4,69.3c0-2,1.5-4,4.2-5.8
		C8.6,63.7,9,63.9,9.3,64c0,0,0.1,0,0.1,0c0.5,0.2,1.1,0.5,1.7,0.7c0.3,0.1,0.6,0.2,0.9,0.3c0.3,0.1,0.7,0.2,1,0.4
		c0.6,0.2,1.3,0.4,1.9,0.6c0.1,0,0.2,0,0.2,0.1c4.1,1.1,8.8,1.7,13.8,1.7c5,0,9.7-0.6,13.8-1.7c0.1,0,0.1,0,0.2-0.1
		c0.7-0.2,1.3-0.4,1.9-0.6c0.3-0.1,0.7-0.2,1-0.4c0.3-0.1,0.6-0.2,0.9-0.3c0.6-0.2,1.1-0.5,1.7-0.7c0,0,0.1,0,0.1,0
		c0.4-0.2,0.8-0.3,1.1-0.5c2.7,1.8,4.2,3.8,4.2,5.8C54,72.4,50.1,75.8,43.8,77.9z M43.8,61.6c-0.2,0.1-0.4,0.1-0.6,0.2
		c-0.4,0.1-0.9,0.3-1.3,0.4c-0.5,0.1-1,0.3-1.5,0.4c-0.2,0.1-0.4,0.1-0.7,0.1c-0.7,0.1-1.3,0.3-2,0.4c-0.1,0-0.3,0-0.4,0.1
		c-0.8,0.1-1.6,0.2-2.4,0.3c-0.1,0-0.1,0-0.2,0c-0.9,0.1-1.8,0.2-2.6,0.2c0,0-0.1,0-0.1,0c-0.9,0-1.9,0.1-2.8,0.1s-1.9,0-2.8-0.1
		c0,0-0.1,0-0.1,0c-0.9,0-1.8-0.1-2.6-0.2c-0.1,0-0.1,0-0.2,0c-0.8-0.1-1.6-0.2-2.4-0.3c-0.1,0-0.3,0-0.4-0.1
		c-0.7-0.1-1.4-0.2-2-0.4c-0.2,0-0.5-0.1-0.7-0.1c-0.5-0.1-1-0.3-1.5-0.4c-0.5-0.1-0.9-0.3-1.3-0.4c-0.2-0.1-0.4-0.1-0.6-0.2
		C7.8,59.5,4,56.2,4,53.1C4,48,14.2,42.3,29,42.3c14.7,0,25,5.7,25,10.8C54,56.2,50.1,59.5,43.8,61.6z M68.4,73.1
		c-3.8,0-7.4-0.4-10.5-1.1v-2.5c0-0.1,0-0.2,0-0.3c0-0.1,0-0.2,0-0.3v-8c3.2,0.6,6.8,1,10.5,1c1,0,2.1,0,3.1-0.1c0,0,0.1,0,0.1,0
		c1-0.1,1.9-0.1,2.8-0.2c0.1,0,0.2,0,0.3,0c0.9-0.1,1.7-0.2,2.5-0.3c0.2,0,0.4-0.1,0.5-0.1c0.7-0.1,1.5-0.3,2.2-0.4
		c0.3-0.1,0.5-0.1,0.8-0.2c0.6-0.1,1.2-0.3,1.7-0.4c0.3-0.1,0.7-0.2,1-0.3c0.5-0.1,0.9-0.3,1.4-0.4c0.6-0.2,1.2-0.4,1.7-0.7
		c0.1-0.1,0.3-0.1,0.4-0.2c0.6-0.3,1.3-0.6,1.9-0.9c0,0,0.1,0,0.1,0c0.4-0.2,0.7-0.3,1.1-0.5c1.7,1.3,3.3,3,3.3,5.2
		C93.4,67.5,83.2,73.1,68.4,73.1z M81.9,56.2c-0.1,0-0.1,0-0.2,0.1c-0.2,0.1-0.4,0.1-0.7,0.2c-0.3,0.1-0.5,0.1-0.8,0.2
		c-0.1,0-0.2,0-0.3,0.1c-2.6,0.6-5.5,1-8.4,1.2c0,0-0.1,0-0.1,0c-0.4,0-0.9,0-1.3,0.1c-0.1,0-0.1,0-0.2,0c-0.5,0-1,0-1.5,0
		c-1,0-2.1,0-3.1-0.1c-2.6-0.1-5.1-0.5-7.4-1v-3.6c0-0.1,0-0.2,0-0.3s0-0.2,0-0.3v-0.1h0c-0.2-4.5-4.2-8.5-10.5-11.1
		c0.1-0.1,0.1-0.1,0.2-0.2c0.4,0.2,0.7,0.3,1.1,0.5c0,0,0.1,0,0.1,0c0.5,0.2,1.1,0.5,1.7,0.7c0.3,0.1,0.6,0.2,0.9,0.4
		c0.3,0.1,0.7,0.2,1,0.4c0.6,0.2,1.3,0.4,1.9,0.6c0.1,0,0.1,0,0.2,0.1c4.1,1.1,8.8,1.7,13.8,1.7c5,0,9.7-0.6,13.8-1.7
		c0.1,0,0.2,0,0.2-0.1c0.7-0.2,1.3-0.4,1.9-0.6c0.3-0.1,0.7-0.2,1-0.4c0.3-0.1,0.6-0.2,0.9-0.3c0.6-0.2,1.1-0.5,1.7-0.7
		c0,0,0.1,0,0.1,0c0.4-0.2,0.8-0.3,1.1-0.5c2.7,1.8,4.2,3.8,4.2,5.8C93.4,50.6,89.1,54.2,81.9,56.2z M92.8,39.1
		C92.8,39.1,92.8,39.1,92.8,39.1L92.8,39.1C92.8,39.1,92.8,39.1,92.8,39.1z M83.2,39.6c-0.2,0.1-0.4,0.1-0.6,0.2
		c-0.4,0.1-0.9,0.3-1.3,0.4c-0.5,0.1-1,0.3-1.5,0.4c-0.2,0.1-0.4,0.1-0.7,0.1c-0.7,0.1-1.3,0.3-2,0.4c-0.1,0-0.3,0-0.4,0.1
		c-0.8,0.1-1.6,0.2-2.4,0.3c-0.1,0-0.1,0-0.2,0c-0.9,0.1-1.8,0.2-2.6,0.2c0,0-0.1,0-0.1,0c-0.9,0-1.9,0.1-2.8,0.1s-1.9,0-2.8-0.1
		c0,0-0.1,0-0.1,0c-0.9,0-1.8-0.1-2.6-0.2c-0.1,0-0.1,0-0.2,0c-0.8-0.1-1.6-0.2-2.4-0.3c-0.1,0-0.3,0-0.4-0.1
		c-0.7-0.1-1.4-0.2-2-0.4c-0.2,0-0.5-0.1-0.7-0.1c-0.5-0.1-1-0.3-1.5-0.4c-0.5-0.1-0.9-0.3-1.3-0.4c-0.2-0.1-0.4-0.1-0.6-0.2
		c-6.1-2-9.9-5.2-10.2-8.2v-0.7c0.1-1.9,1.6-3.8,4.2-5.5c0.4,0.2,0.7,0.3,1.1,0.5c0,0,0.1,0,0.1,0.1c0.5,0.2,1.1,0.5,1.7,0.7
		c0.3,0.1,0.6,0.2,1,0.4c0.3,0.1,0.6,0.2,1,0.3c0.6,0.2,1.3,0.4,2,0.6c0.1,0,0.1,0,0.2,0c4.1,1.1,8.8,1.7,13.8,1.7
		c5,0,9.7-0.6,13.8-1.7c0.1,0,0.1,0,0.2-0.1c0.7-0.2,1.3-0.4,1.9-0.6c0.3-0.1,0.7-0.2,1-0.3c0.3-0.1,0.6-0.2,1-0.4
		c0.6-0.2,1.1-0.5,1.7-0.7c0,0,0.1,0,0.1,0c0.4-0.2,0.8-0.3,1.1-0.5c2.7,1.8,4.2,3.8,4.2,5.8C93.4,34.1,89.6,37.5,83.2,39.6z
		 M83.2,23.3c-0.2,0.1-0.4,0.1-0.7,0.2c-0.4,0.1-0.9,0.3-1.3,0.4c-0.5,0.1-1,0.3-1.6,0.4c-0.2,0-0.4,0.1-0.7,0.1
		c-0.7,0.1-1.3,0.3-2,0.4c-0.1,0-0.3,0-0.4,0.1c-0.8,0.1-1.6,0.2-2.4,0.3c-0.1,0-0.1,0-0.2,0c-0.9,0.1-1.8,0.2-2.7,0.2
		c0,0-0.1,0-0.1,0c-0.9,0-1.9,0.1-2.8,0.1s-1.9,0-2.8-0.1c0,0-0.1,0-0.1,0c-0.9,0-1.8-0.1-2.7-0.2c-0.1,0-0.1,0-0.2,0
		c-0.8-0.1-1.6-0.2-2.4-0.3c-0.1,0-0.3,0-0.4-0.1c-0.7-0.1-1.4-0.2-2-0.4c-0.2,0-0.4-0.1-0.7-0.1c-0.5-0.1-1.1-0.3-1.6-0.4
		c-0.4-0.1-0.9-0.2-1.3-0.4c-0.2-0.1-0.4-0.1-0.7-0.2c-6.1-2-9.8-5.2-10.2-8.1v-0.8C44,9.4,54.1,4,68.4,4c14.7,0,25,5.7,25,10.8
		C93.4,17.9,89.6,21.2,83.2,23.3z"/>
</g>
</svg>
