<svg width="46" height="46" fill="none" xmlns="http://www.w3.org/2000/svg"><path d="M18.2 24.7h.9-.9zm8.4 0h.9-.9zm9.4-2.5c0-2-1.5-3.4-3.4-3.4-.7 0-1.4.2-2 .7a14 14 0 0 0-7-2.3l1.5-3.4 4 1a2.5 2.5 0 0 0 2.6 2.3c1.4 0 2.5-1.2 2.5-2.6 0-1.4-1.1-2.5-2.5-2.5-.9 0-1.7.5-2.1 1.2L24.8 12c-.4 0-.8.1-1 .5l-2 4.6c-2.8.1-5.4 1-7.5 2.3-.5-.4-1.2-.6-2-.6a3.4 3.4 0 0 0-1.6 6.3v.4c0 4.7 5.3 8.5 11.7 8.5 6.5 0 11.8-3.8 11.8-8.5v-.4a3.4 3.4 0 0 0 1.8-3zm-4.3-8.5a.8.8 0 0 1 0 1.7.8.8 0 0 1 0-1.7zm-15.1 11c0-1 .7-1.7 1.6-1.7a1.7 1.7 0 0 1 0 3.4c-.9 0-1.6-.8-1.6-1.7zm9.7 5.6a6.6 6.6 0 0 1-7.7 0 .8.8 0 0 1-.2-1.2c.2-.4.8-.4 1.1-.2 1.8 1.3 4.1 1.3 5.8 0 .4-.2 1-.2 1.2.2.3.4.2 1-.2 1.2zm.3-4c-.9 0-1.6-.7-1.6-1.6 0-1 .7-1.7 1.6-1.7 1 0 1.7.8 1.7 1.7 0 1-.7 1.7-1.7 1.7z" fill="#FFF"/></svg>