<svg id="Layer_1" xmlns="http://www.w3.org/2000/svg" viewBox="0 0 80 80"><style>.st0{fill:#f7931a}</style><path class="st0" d="M35.8 39.8l-2.4 9.5c2.9.7 12 3.6 13.3-1.7 1.5-5.6-7.9-7-10.9-7.8z"/><path class="st0" d="M40 0C17.9 0 0 17.9 0 40s17.9 40 40 40 40-17.9 40-40S62.1 0 40 0zm16.6 33.8c-.6 3.8-2.7 5.7-5.5 6.3 3.9 2 5.8 5.1 4 10.5-2.3 6.7-7.9 7.2-15.2 5.8l-1.8 7.2-4.3-1.1 1.8-7.1c-1.1-.3-2.3-.6-3.4-.9l-1.8 7.1-4.4-1 1.8-7.2c-1-.3-2-.5-3.1-.8l-5.6-1.4 2.1-4.9s3.2.8 3.1.8c1.2.3 1.8-.5 2-1l2.8-11.3c.2 0 .3.1.5.1-.2-.1-.3-.1-.4-.1l2-8.1c.1-.9-.3-2.1-2-2.5.1 0-3.1-.8-3.1-.8l1.1-4.6 6 1.5c.9.2 1.8.4 2.8.6l1.8-7.1 4.3 1.1-1.7 7c1.2.3 2.3.5 3.5.8l1.7-6.9 4.3 1.1-1.9 6.9c5.4 1.9 9.4 4.7 8.6 10z"/><path class="st0" d="M39.1 26.9l-2.2 8.6c2.4.6 10 3.1 11.2-1.8 1.3-5.1-6.6-6.2-9-6.8z"/></svg>