<svg width="46" height="46" fill="none" xmlns="http://www.w3.org/2000/svg"><path d="M32.8 20.9l.2-2c0-3.2-1.6-4.4-1.9-5 .5-2.4 0-3.5-.3-3.8-.9-.4-3 .8-4.2 1.5-2-.5-6.1-.5-7.6.2-2.9-2-4.4-1.7-4.4-1.7s-1 1.7-.3 4.2c-.9 1.2-1.6 2-1.6 4.3l.1 1.5c.8 4.2 4.2 6 7.5 6.3-.5.4-1.1 1-1.2 1.9-.6.4-1.9.5-2.9.2-1.3-.4-1.9-3-3.9-2.7-.4 0-.4.4 0 .6a4 4 0 0 1 1.7 2c.3.8 1 2.3 3.4 2.3l1.5-.1v2.9c0 .9-1.2 1.2-1.2 1.6 0 .2.4.2.8.2.6 0 2-.5 2-1.5v-3.9c0-1 .6-1.3.6-1.3s0 5.3-.2 6c-.2.9-.6.8-.6 1.1 0 .6 1.7.2 2.2-1 .5-1 .3-6.2.3-6.2h.4V32c0 1.1-.1 2.5.6 3.2.4.4 1.8 1.2 1.8.5 0-.4-1-.7-1-1.9v-5c.6 0 .7 1.6.7 1.6l.2 3.1s-.1 1.2 1.3 1.7c.4.1 1.5.2 1.5-.1.1-.3-1.2-.7-1.2-1.6v-3.2c0-2.4-.3-3.2-1.4-4 3.2-.2 6.5-1.7 7.1-5.4z" fill="#FFF"/></svg>