<svg xmlns="http://www.w3.org/2000/svg" width="254.156" height="38.938"><path d="M31.467 33.994a16.3 16.3 0 0 0 12.264 4.944 16.879 16.879 0 0 0 10.848-3.552 15.123 15.123 0 0 0 5.52-9.6h-6.192a9.474 9.474 0 0 1-3.576 5.568 10.752 10.752 0 0 1-6.6 2.016 10.076 10.076 0 0 1-7.992-3.312q-2.9-3.312-2.9-8.88t2.9-8.856a10.113 10.113 0 0 1 7.992-3.288 10.752 10.752 0 0 1 6.6 2.016 9.475 9.475 0 0 1 3.576 5.568H60.1a15.124 15.124 0 0 0-5.52-9.6 16.88 16.88 0 0 0-10.848-3.552A16.306 16.306 0 0 0 31.468 8.41q-4.776 4.944-4.776 12.768-.001 7.872 4.775 12.816zm53.376 1.056a13.7 13.7 0 0 0 0-18.456 13.387 13.387 0 0 0-18.72 0 13.7 13.7 0 0 0 0 18.456 13.448 13.448 0 0 0 18.72 0zM70.3 20.026a7.189 7.189 0 0 1 10.368 0 9.22 9.22 0 0 1 0 11.568 7.189 7.189 0 0 1-10.368 0 9.22 9.22 0 0 1 0-11.568zm23.351-1.584v19.824h5.712V13.354H90v5.088h3.648zm5.424-10.248a3.367 3.367 0 0 0 1.008-2.52 3.509 3.509 0 0 0-1.008-2.592 3.449 3.449 0 0 0-2.544-1.008 3.453 3.453 0 0 0-3.6 3.6 3.367 3.367 0 0 0 1.008 2.52 3.554 3.554 0 0 0 2.592.984 3.492 3.492 0 0 0 2.543-.984zm6 5.16v24.912h5.712V23.818a6.264 6.264 0 0 1 1.56-4.512 5.661 5.661 0 0 1 4.3-1.632 4.5 4.5 0 0 1 3.72 1.512 6.421 6.421 0 0 1 1.224 4.152v14.928h5.709V22.618a10.281 10.281 0 0 0-2.424-7.152 8.738 8.738 0 0 0-6.84-2.688 9.647 9.647 0 0 0-4.824 1.128 7.007 7.007 0 0 0-2.856 2.76v-3.312h-5.28zm37.152 20.064q-2.785 0-2.784-2.928V17.914h4.657v-4.56h-4.656v-6.48h-5.714v6.48h-3.792v4.56h3.792v13.152q0 7.344 7.3 7.344a11.909 11.909 0 0 0 2.976-.288v-4.944zm17.855-20.3q-5.232 0-7.344 3.7v-3.464h-5.28v24.912h5.712v-12.96q0-6.912 6.432-6.912a9.233 9.233 0 0 1 1.3.1v-5.332zm18.577 15.792q0 5.472-7.008 5.472-4.274 0-4.272-3.216a2.849 2.849 0 0 1 1.488-2.784q1.44-.768 9.792-.768v1.3zm.288 6.72v2.64h5.28V22.09a8.777 8.777 0 0 0-2.712-6.864q-2.714-2.448-8.04-2.448-5.281 0-7.944 2.376a9.058 9.058 0 0 0-3.048 6.024h5.568q.622-3.7 5.28-3.7 5.328 0 5.328 4.56v1.248q-4.514 0-7.248.216a28.527 28.527 0 0 0-3.624.432 10.6 10.6 0 0 0-1.848.648 6.462 6.462 0 0 0-4.032 6.384 7.722 7.722 0 0 0 2.16 5.712q2.16 2.16 6.576 2.16 5.616 0 8.3-3.216zm7.871-22.272v4.56h3.982V38.27h5.712V17.914h4.416v-4.56h-4.416v-2.3a4.308 4.308 0 0 1 .744-2.856 3.161 3.161 0 0 1 2.472-.84 3.876 3.876 0 0 1 1.056.1V2.41l-1.92-.144a8.083 8.083 0 0 0-5.9 2.112q-2.16 2.113-2.16 6.336v2.64h-3.984zm14.4 0v4.56h3.982V38.27h5.712V17.914h4.416v-4.56h-4.416v-2.3a4.308 4.308 0 0 1 .744-2.856 3.161 3.161 0 0 1 2.472-.84 3.876 3.876 0 0 1 1.056.1V2.41l-1.92-.144a8.083 8.083 0 0 0-5.9 2.112q-2.16 2.113-2.16 6.336v2.64h-3.984zm19.344 5.088V38.27h5.712V13.354h-9.36v5.088h3.648zm5.424-10.248a3.367 3.367 0 0 0 1.008-2.52 3.509 3.509 0 0 0-1.008-2.592 3.449 3.449 0 0 0-2.544-1.008 3.453 3.453 0 0 0-3.6 3.6 3.367 3.367 0 0 0 1.008 2.52 3.554 3.554 0 0 0 2.592.984 3.492 3.492 0 0 0 2.543-.988zm7.44 26.88a11.656 11.656 0 0 0 8.928 3.768 11.363 11.363 0 0 0 11.808-9.6h-5.856a5.921 5.921 0 0 1-2.136 3.312 6.114 6.114 0 0 1-3.864 1.248 5.972 5.972 0 0 1-4.848-2.208 8.75 8.75 0 0 1-1.824-5.76 8.847 8.847 0 0 1 1.824-5.784 5.945 5.945 0 0 1 4.848-2.232 6.115 6.115 0 0 1 3.864 1.248 5.924 5.924 0 0 1 2.136 3.312h5.856a11.363 11.363 0 0 0-11.808-9.6 11.657 11.657 0 0 0-8.928 3.768 14 14 0 0 0-.001 18.524z" fill="#456879" fill-rule="evenodd"/><circle cx="9" cy="9" r="9" fill="#f57212"/></svg>