<svg width="29" height="29" fill="none" xmlns="http://www.w3.org/2000/svg"><path d="M28.2 14.1a13.4 13.4 0 0 1-20 11.7L.9 28.2 3.2 21A13.4 13.4 0 0 1 14.7.8c7.5 0 13.5 6 13.5 13.3zM14.7 3C8.5 3 3.5 8 3.5 14.1c0 2.5.8 4.8 2.1 6.6L4.2 25l4.3-1.4A11.3 11.3 0 0 0 26 14.1C26 8 21 3 14.7 3zm6.8 14.3l-.6-.4c-.3-.1-2-1-2.3-1-.3-.1-.5-.2-.7.1l-1 1.3c-.2.2-.4.3-.7.1-.4-.2-1.4-.5-2.7-1.6-1-.9-1.6-2-1.8-2.3-.2-.3 0-.5.1-.6l.5-.6.3-.6c.2-.2.1-.4 0-.5l-1-2.5c-.3-.6-.5-.5-.7-.5h-.7c-.2 0-.5 0-.8.4-.4.3-1.2 1-1.2 2.7 0 1.6 1.2 3.2 1.3 3.4.2.2 2.3 3.6 5.7 5 3.3 1.2 3.3.8 4 .7.5 0 1.9-.8 2.1-1.5.3-.8.3-1.4.2-1.6z" fill="#fff"/></svg>